<?xml version="1.0" encoding="utf-8"?>
<!-- Generator: Adobe Illustrator 23.0.3, SVG Export Plug-In . SVG Version: 6.00 Build 0)  -->
<svg version="1.1" xmlns="http://www.w3.org/2000/svg" xmlns:xlink="http://www.w3.org/1999/xlink" x="0px" y="0px"
	 viewBox="0 0 1799.6 1200.87" style="enable-background:new 0 0 1799.6 1200.87;" xml:space="preserve">
<style type="text/css">
	.st0{fill:#E3E5FC;}
	.st1{fill:#FFFFFF;}
	.st2{fill:#A7ADFF;}
	.st3{fill:#F44E4E;}
	.st4{fill:#978CFF;}
	.st5{fill:#FAE026;}
	.st6{fill:#FDC510;}
	.st7{fill:#4B369D;}
	.st8{fill:#EAC2AB;}
	.st9{fill:#5A54FF;}
	.st10{fill:#D4A79A;}
	.st11{fill:#D7384E;}
</style>
<g id="Nature">
	<ellipse id="Ground" class="st0" cx="846.62" cy="999.15" rx="575.54" ry="32.04"/>
	<g id="Plants">
		<path class="st0" d="M1456.75,978.96c36.07-1.92,76.01-11.31,98.08-34.13c10.87-11.24,15.89-25.62,12.94-41.6
			c-3.33-18.05-17.79-34.41-20.99-52.52c-3.3-18.65,11.32-25.45,17.96-40.17c7.52-16.65,3.66-37.78-10.54-54.42
			c-7.18-8.41-16.84-15.52-27.77-19.91c-11.66-4.68-24.7-3.95-31.22-15.76c-3.94-7.14-3.55-14.88-2.21-21.98
			c3.44-18.17,12.45-34.47,19.68-51.34c2.88-6.7,5.15-15.05-0.76-21.53c-11.99-13.13-41.15-9.92-53.8-4.9
			c-13.58,5.39-23.36,16.08-26.43,28.88c-2.72,11.32-0.98,25.1-10.7,32.47c-6.72,5.1-17.08,5.5-25.95,7.88
			c-15.91,4.27-17.34,17.21-13.08,30.78c5.15,16.41,10.52,32.83,0.73,46.82c-8.61,12.31-25.27,18.57-36.05,29.46
			c-3.62,3.66-6.63,8.07-6.62,13.21c0.05,18.19,26.08,31.28,28.16,50.38c1,9.17-0.85,17.96-2.04,26.8
			c-4.06,30.15,7.52,61.1,40.11,82.81c30.24,20.15,71.95,25.05,101.14,11.88"/>
		<g>
			<path class="st1" d="M1438.22,972.27c-0.06,0-0.12,0-0.18-0.01c-1.03-0.1-1.79-1.01-1.69-2.04l21.12-222.8
				c0.1-1.03,1.1-1.82,2.04-1.69c1.03,0.1,1.79,1.01,1.69,2.04l-21.12,222.8C1439.99,971.54,1439.18,972.27,1438.22,972.27z"/>
		</g>
		<g>
			<path class="st1" d="M1448.78,860.87c-0.72,0-1.41-0.42-1.72-1.13c-0.41-0.95,0.02-2.05,0.97-2.47l63.02-27.47
				c0.95-0.41,2.05,0.02,2.47,0.97c0.41,0.95-0.02,2.05-0.97,2.47l-63.02,27.47C1449.28,860.82,1449.03,860.87,1448.78,860.87z"/>
		</g>
		<g>
			<path class="st1" d="M1452.52,814.74c-0.72,0-1.41-0.42-1.72-1.13c-0.41-0.95,0.02-2.05,0.97-2.47l63.02-27.47
				c0.95-0.4,2.05,0.02,2.47,0.97c0.41,0.95-0.02,2.05-0.97,2.47l-63.02,27.47C1453.03,814.69,1452.78,814.74,1452.52,814.74z"/>
		</g>
		<g>
			<path class="st1" d="M1450.8,839.53c-0.25,0-0.51-0.05-0.75-0.16l-56.41-24.78c-0.95-0.42-1.38-1.52-0.96-2.47
				c0.42-0.95,1.53-1.36,2.47-0.96l56.41,24.78c0.95,0.42,1.38,1.52,0.96,2.47C1452.21,839.11,1451.52,839.53,1450.8,839.53z"/>
		</g>
		<g>
			<path class="st2" d="M1403.73,922.42c0.2-0.7,0.37-1.4,0.53-2.11c2.12-9.9-1.02-19.28-9.14-25.06
				c-6.41-4.57-16.84-5.98-19.34-14.65c-1.17-4.06,0.2-8.41,1.92-12.27c1.72-3.86,3.84-7.68,4.23-11.89s-1.54-9.03-5.57-10.33
				c-2.92-0.94-6.09,0.15-9.14-0.15c-11.37-1.15-7.49-13.96-10.59-21.27c-1.32-3.1-4.09-5.8-7.45-6.08
				c-3.58-0.31-6.76,2.04-9.88,3.81s-7.34,2.95-10.08,0.63c-2.87-2.43-2.19-7.02-0.78-10.52c3.45-8.59,9.6-15.8,16.09-22.4
				c2.67-2.71,5.56-5.63,6.1-9.4c0.69-4.78-2.74-9.27-6.74-11.97c-9.85-6.66-21.64-11.17-33.1-14.07
				c-12.32-3.12-39.29-3.77-37.89,16.34c0.84,11.99,18.72,31,5.02,40.91c-6.71,4.85-22.44,3.31-18.11,15.81
				c0.9,2.61,2.24,5.08,2.86,7.78c2.4,10.32-5.98,18.4-6.41,28.28c-0.36,8.27,7.7,14.87,13.2,19.83c2.5,2.25,4.75,5.35,4.3,8.68
				c-0.26,1.95-1.41,3.66-1.95,5.56c-1,3.52,0.2,7.25,0.44,10.9c0.52,7.8-6.67,8.88-9.25,15.08c-5.69,13.68,21.51,13.17,27.26,20.53
				c4.77,6.12,3.73,14.53,7.22,21.21c7.54,14.42,31.3,18.12,45.74,19.33c9.54,0.8,19.8-0.94,26.99-7.26
				c7.86-6.91,10.43-17.35,15.02-26.34C1390.6,940.74,1400.36,934.24,1403.73,922.42z"/>
			<path class="st3" d="M1415.39,965.01c-4.05-9.63-2.88-20.55-1.64-30.93c0.41-3.47,0.87-7.05,2.68-10.04
				c1.67-2.75,4.84-4.94,8.17-4.44c0.38,0.06,0.77,0.14,1.13,0.01c0.63-0.24,0.82-1.02,0.9-1.68c0.54-4.49-0.48-8.78-0.5-13.24
				c-0.02-5.86,5.68-1.39,7.42,0.77c1.35,1.68,2.45,3.55,3.83,5.2c0.16,0.19,0.4,0.4,0.63,0.31c0.23-0.09,0.26-0.41,0.26-0.66
				c0.01-1.2,0.38-2.4,1.04-3.4c0.72-1.09,1.77-1.93,2.62-2.93c2.54-2.96,1.47-8.31,3.42-11.91c1.86-3.44,5.27-6.47,9.45-5.61
				c6.9,1.42,7.89,10.9,6.53,17.81c-0.62,3.16-1.04,7.2,1.7,8.88c2.91,1.78,19.11-11.56,24.69-15.08c2.56-1.61,6.08-3.07,8.38-1.11
				c2.22,1.9,1.48,5.47,0.31,8.15c-1.34,3.07,4.93,5.13,6.5,7.11c5.8,7.29,2.64,19.68-1.27,27.01
				c-4.09,7.67-10.14,14.39-16.56,20.18c-5.26,4.75,6.47,15.95,1.86,21.39c-7.45,8.77-37.93,8.06-49.7,6.94
				c-10.01-0.96-15.72-9.57-19.7-17.91C1416.78,968.24,1416.07,966.63,1415.39,965.01z"/>
			<g>
				<path class="st1" d="M1427.99,984.82c-0.34,0-0.68-0.09-0.99-0.28c-0.88-0.55-1.15-1.7-0.6-2.58l34.19-54.81
					c0.55-0.88,1.72-1.14,2.58-0.6c0.88,0.55,1.15,1.7,0.6,2.58l-34.19,54.81C1429.22,984.5,1428.61,984.82,1427.99,984.82z"/>
			</g>
			<g>
				<path class="st1" d="M1453.2,944.38c-0.9,0-1.7-0.66-1.85-1.58c-0.16-1.02,0.53-1.98,1.56-2.14l18.74-2.98
					c1.03-0.18,1.99,0.53,2.15,1.56c0.16,1.02-0.53,1.98-1.56,2.14l-18.74,2.98C1453.4,944.38,1453.3,944.38,1453.2,944.38z"/>
			</g>
			<g>
				<path class="st1" d="M1361.91,990.52c-0.78,0-1.5-0.49-1.77-1.26l-54.19-157.12c-0.34-0.98,0.18-2.05,1.16-2.38
					c0.97-0.34,2.05,0.18,2.38,1.16l54.19,157.12c0.34,0.98-0.18,2.05-1.16,2.38C1362.32,990.48,1362.11,990.52,1361.91,990.52z"/>
			</g>
			<g>
				<path class="st1" d="M1339.75,930c-0.06,0-0.13,0-0.19-0.01l-35.27-3.53c-1.03-0.1-1.78-1.02-1.68-2.05
					c0.1-1.03,1.04-1.77,2.05-1.68l35.27,3.53c1.03,0.1,1.78,1.02,1.68,2.05C1341.51,929.28,1340.7,930,1339.75,930z"/>
			</g>
			<g>
				<path class="st1" d="M1325.15,883.68c-0.11,0-0.23-0.01-0.34-0.03l-29.91-5.51c-1.02-0.19-1.69-1.16-1.5-2.18
					c0.19-1.02,1.15-1.69,2.18-1.5l29.91,5.51c1.02,0.19,1.69,1.16,1.5,2.18C1326.83,883.05,1326.04,883.68,1325.15,883.68z"/>
			</g>
			<g>
				<path class="st1" d="M1332.42,904.66c-0.46,0-0.92-0.17-1.28-0.5c-0.75-0.71-0.79-1.89-0.09-2.65l24.8-26.49
					c0.71-0.75,1.89-0.79,2.65-0.09c0.75,0.71,0.79,1.89,0.09,2.65l-24.8,26.49C1333.42,904.46,1332.92,904.66,1332.42,904.66z"/>
			</g>
		</g>
	</g>
</g>
<g id="UI_1_">
	<g id="E-commerce_Mobile_1_">
		<g>
			<path class="st0" d="M493.47,817.89h-217.5c-24.73,0-44.96-20.23-44.96-44.96V240.55c0-24.73,20.23-44.96,44.96-44.96h217.5
				c24.73,0,44.96,20.23,44.96,44.96v532.37C538.43,797.65,518.2,817.89,493.47,817.89z"/>
			<path class="st1" d="M473.96,759.83H295.47c-24.73,0-44.96-20.23-44.96-44.96v-453.4c0-24.73,20.23-44.96,44.96-44.96h178.49
				c24.73,0,44.96,20.23,44.96,44.96v453.4C518.93,739.59,498.69,759.83,473.96,759.83z"/>
			<path class="st0" d="M413.68,209.82h-57.92c-1.41,0-2.56-1.15-2.56-2.56l0,0c0-1.41,1.15-2.56,2.56-2.56h57.92
				c1.41,0,2.56,1.15,2.56,2.56l0,0C416.24,208.67,415.08,209.82,413.68,209.82z"/>
			<circle class="st2" cx="384.72" cy="786.94" r="15.95"/>
			<path class="st3" d="M453.3,695H316.13c-15.57,0-28.32-12.74-28.32-28.32v0c0-15.57,12.74-28.32,28.32-28.32H453.3
				c15.57,0,28.32,12.74,28.32,28.32v0C481.62,682.25,468.88,695,453.3,695z"/>
			<path class="st2" d="M483.72,304.97h-82.64c-3.77,0-6.85-3.08-6.85-6.85v0c0-3.77,3.08-6.85,6.85-6.85h82.64
				c3.77,0,6.85,3.08,6.85,6.85v0C490.57,301.89,487.49,304.97,483.72,304.97z"/>
			<path class="st2" d="M483.72,336.35h-82.64c-3.77,0-6.85-3.08-6.85-6.85l0,0c0-3.77,3.08-6.85,6.85-6.85h82.64
				c3.77,0,6.85,3.08,6.85,6.85l0,0C490.57,333.26,487.49,336.35,483.72,336.35z"/>
			<g>
				<path class="st0" d="M383.54,596.97L383.54,596.97c-0.87-0.71-1.01-2.01-0.29-2.88l18.79-23.07c0.71-0.87,2.01-1.01,2.88-0.29
					l0,0c0.87,0.71,1.01,2.01,0.29,2.88l-18.79,23.07C385.71,597.55,384.41,597.68,383.54,596.97z"/>
				<path class="st0" d="M385.89,596.97L385.89,596.97c0.87-0.71,1.01-2.01,0.29-2.88l-18.79-23.07c-0.71-0.87-2.01-1.01-2.88-0.29
					l0,0c-0.87,0.71-1.01,2.01-0.29,2.88l18.79,23.07C383.72,597.55,385.02,597.68,385.89,596.97z"/>
			</g>
			<g>
				<g>
					<path class="st0" d="M351.91,291.91h-40.85v-3.75c0-14.59,9.16-26.46,20.43-26.46s20.43,11.87,20.43,26.46V291.91z
						 M318.82,284.42h25.33c-1.22-8.56-6.53-15.22-12.67-15.22C325.35,269.19,320.04,275.86,318.82,284.42z"/>
				</g>
				<g>
					<path class="st2" d="M314.22,283.28c-6.38,0-11.6,4.08-11.6,9.06l-10.86,63.72c0,4.98,5.22,9.06,11.6,9.06h47.24l-12.68-81.84
						H314.22z"/>
					<path class="st4" d="M367.85,356.05l-9.31-63.72c0-4.98-5.22-9.06-11.6-9.06h-9.03l12.68,81.84h5.65
						C362.63,365.11,367.85,361.04,367.85,356.05z"/>
				</g>
			</g>
			<path class="st2" d="M483.72,451.74h-82.64c-3.77,0-6.85-3.08-6.85-6.85v0c0-3.77,3.08-6.85,6.85-6.85h82.64
				c3.77,0,6.85,3.08,6.85,6.85v0C490.57,448.65,487.49,451.74,483.72,451.74z"/>
			<path class="st2" d="M483.72,483.11h-82.64c-3.77,0-6.85-3.08-6.85-6.85v0c0-3.77,3.08-6.85,6.85-6.85h82.64
				c3.77,0,6.85,3.08,6.85,6.85v0C490.57,480.03,487.49,483.11,483.72,483.11z"/>
			<g>
				<g>
					<path class="st0" d="M351.91,438.67h-40.85v-3.75c0-14.59,9.16-26.46,20.43-26.46s20.43,11.87,20.43,26.46V438.67z
						 M318.82,431.18h25.33c-1.22-8.56-6.53-15.22-12.67-15.22C325.35,415.96,320.04,422.62,318.82,431.18z"/>
				</g>
				<g>
					<path class="st5" d="M314.22,430.04c-6.38,0-11.6,4.08-11.6,9.06l-10.86,63.72c0,4.98,5.22,9.06,11.6,9.06h47.24l-12.68-81.84
						H314.22z"/>
					<path class="st6" d="M367.85,502.82l-9.31-63.72c0-4.98-5.22-9.06-11.6-9.06h-9.03l12.68,81.84h5.65
						C362.63,511.88,367.85,507.8,367.85,502.82z"/>
				</g>
			</g>
			<circle class="st3" cx="364.4" cy="357.77" r="16.24"/>
			<circle class="st3" cx="364.4" cy="506.74" r="16.24"/>
		</g>
		<path class="st7" d="M384.72,628.42L384.72,628.42c-6.01,0-10.93-4.92-10.93-10.93v0c0-6.01,4.92-10.93,10.93-10.93l0,0
			c6.01,0,10.93,4.92,10.93,10.93v0C395.65,623.51,390.73,628.42,384.72,628.42z"/>
	</g>
</g>
<g id="Characters">
	<g id="Woman">
		<path id="Arm_1_" class="st8" d="M725.44,495.76c28.4-31.97,90.58-99.25,116.13-133.41c1.34-1.79,2.71-3.68,2.98-5.87
			c0.34-2.77-1.13-5.4-2.33-7.94c-2.83-5.98-4.34-12.54-4.39-19.12c-0.03-3.26,0.35-6.69,2.26-9.38c1.91-2.68,5.74-4.3,8.76-2.87
			c-0.56,10.57,1.35,21.26,5.54,31.03c2.71-4.3,5.42-8.59,8.12-12.89c2.76,14.34-9,26.94-15.3,40.18
			c-3.19,6.71-44.24,53.72-48.48,59.86c-23.61,34.17-29.69,46.99-53.18,68.32c-6.23,5.66-12.68,11.46-20.64,14.43
			c-7.96,2.98-17.91,2.5-23.95-3.36L725.44,495.76z"/>
		<g id="Leg_1_">
			<path class="st8" d="M1025.84,699.2l23.67,46.53l-15.38,10.55l-21.69-50.21C1012.43,706.07,1020.08,699.16,1025.84,699.2z"/>
			<path class="st6" d="M1119.42,768.91c0,0-13.28,4.14-38.72,5.72c-25.44,1.58-59.31-1.53-65.3-3.66
				c-9.11-3.23-2.12-31.24,6.36-31.18s11.76,11.56,26.73,1.43c12.82-8.68,23.03,7.93,45.33,12.5S1125.15,760.13,1119.42,768.91z"/>
			<path class="st7" d="M975.5,677.93c2.9,6.75,4.98,13.87,8.49,20.33c4.93,9.08,12.91,17.92,11.29,28.12
				c-0.6,3.82-2.12,8.75,1.18,10.76c2.46,1.5,5.66-0.22,7.58-2.37c4.15-4.66,6.03-11.69,11.68-14.33c5.05-2.36,11.06-0.2,16.53-1.24
				c9.19-1.75,14.98-12.02,24.2-13.63c-0.18-2.6-3.35-3.59-5.73-4.65c-5.03-2.24-8.24-7.15-11.15-11.82
				c-10.48-16.81-20.76-33.87-28.08-52.27c-1.55-3.88-2.97-7.85-5.21-11.37c-1.99-3.15-4.58-5.87-7.28-8.44
				c-5.37-5.1-11.26-9.65-17.54-13.56c-8.53-5.32-20.04-9.95-29.61-4.48c-7.57,4.33-13.8,15.45-12.35,24.23
				c1.62,9.82,11.1,17.66,17.08,24.95C964.05,657.29,970.83,667.07,975.5,677.93z"/>
		</g>
		<g id="Leg">
			<path class="st8" d="M1084.24,603.5l55.7,6.85l-0.41,19.2l-57.68-10.66C1081.85,618.88,1080.59,608.37,1084.24,603.5z"/>
			<path class="st6" d="M1180.47,546.62c0,0,0.55,14.39-4.98,40.03c-5.53,25.64-12.82,53.92-17.97,57.94
				c-5.15,4.02-37.2-1.84-34.75-10.21s15.29-8.13,9.01-26c-5.38-15.31,14.71-20.37,25.73-41.04
				C1168.54,546.67,1172.98,538.3,1180.47,546.62z"/>
			<path class="st9" d="M837.25,631.1c-15.5,5.18-20.96,20.96-26.07,36.49c-3.7,11.26-5.73,23.08-5.98,34.93
				c-0.15,6.7,0.65,14.21,5.75,18.55c2.82,2.39,6.54,3.42,10.19,4.03c26.28,4.43,52.7-9.3,71.75-27.93s32.67-41.99,48.91-63.12
				c7.24-9.42,16.38-19.14,28.24-19.87c13.49-0.83,24.41,10.11,36.53,16.08c13,6.4,27.47,10.08,41.76,12.18
				c14.75,2.16,22.91,2.97,37.06,8.63c5.52,2.21,11.36,10.26,16.51,11.71c15.44,4.35,5.2-3.99,7.37-7.96
				c2.79-5.09,5.13-13.52,3.74-18.29c-2.41-8.23-3.35-17.37-3.02-25.93c0.21-5.49,4.78-9.4,7.35-14.05
				c5.15-11.24-28.2-6.67-41.95-7.25c-16.04-0.67-31.8-4.41-47.26-8.75c-17.34-4.87-34.47-10.52-51.3-16.93
				c-12.2-4.64-25.05-9.78-37.9-7.53c-17.55,3.07-29.58,18.64-42.22,31.19c-14.65,14.55-24.28,22.68-43.37,30.54"/>
		</g>
		<g id="Head">
			<path id="Neck" class="st10" d="M679.94,483.9l8.88,27.96l23.88,5.25l-7.18-11.71c0,0-11.75-19.49-7.5-31.76
				S679.94,483.9,679.94,483.9z"/>
			<path id="Face" class="st8" d="M686.95,399.89c6.31,1.37,16.94,8.36,18.85,14.52c1.27,4.08,2.59,8.43,5.31,11.82
				c3.46,4.33,8.36,6.39,12.89,9.29c4.45,2.85-1.76,4.06-3.7,6.72c-2.17,2.98-2.33,6.37-2.64,10.09c-0.63,7.66,1.03,22.09-3.6,28.43
				c-6.24,8.54-29.35,5.09-36.84,0.89c-1.49-0.83-18.7-10.09-18.3-11.12C658.92,470.53,686.95,399.89,686.95,399.89z"/>
			<g id="Hair">
				<path class="st7" d="M646.07,405.9c1.28-1.68,0.12-4.07,0.27-6.18c0.19-2.7,2.54-4.7,4.79-6.21
					c12.37-8.34,27.71-12.18,42.55-10.66c5.92,0.61,4.36,2.08,9.42,5.22c6.46,4,14.54,18.79,5.08,24.76
					c-9.99,6.31-21.82-0.3-11.85,1.2c-5.83-0.87-8.6,4.1-11.76,8.87c-12.07,18.21-10.87,40.78-4.62,61
					c-33.41-9.19-54.04-34.23-45.45-60.7c3.7-11.4,12.79-27.76,2.9-38.47c-6.23-6.74-16.47-7.93-25.6-7.01
					c-8.81,0.89-17.88,3.59-24.03,9.97c-9.65,10.03-9.35,26.22-4.68,39.33c4.67,13.11,12.92,24.7,17.7,37.77
					c3.84,10.51,3.96,24.87-5.93,30.09c-8.92,4.7-19.37-1.25-28.94-4.42c-11.99-3.97-26.41-2.94-35.65,5.66
					c-9.25,8.6-10.36,25.63-0.29,33.26c-5.04,3.67-7.48,10.56-5.88,16.59c1.61,6.02,7.16,10.79,13.36,11.46
					c8.46,0.92,16.69-5.1,25.07-3.61c4.71,0.84,8.65,3.93,12.97,5.99c4.32,2.06,9.97,2.92,13.5-0.31c1.96-1.79,2.82-4.45,3.96-6.84
					c6.06-12.65,20.92-18.87,28.23-30.84c14.17-23.21-0.41-58.65-2.12-83.42c-0.56-8.14,0.16-17.43,6.45-22.63
					c5.73-4.73,12.6-8.32,18.89-12.25C644.95,404.31,645.51,405.11,646.07,405.9z"/>
			</g>
			<path id="Ear" class="st8" d="M679.04,448.41c0,0-14.36-3.78-12.93,7.25c1.43,11.03,15.18,12.65,15.18,12.65l-3.51-12.9
				L679.04,448.41z"/>
			<path id="Decoration" class="st3" d="M648.95,395.19c0,0,3.52,1.86,1.33,7.16c-2.19,5.31-12.64,17.43-13.19,13.71
				c-0.55-3.72-8.04-0.67-4.61-5.98c3.43-5.31,2.65-3.54,6.44-9.6c3.64-5.82-0.51-8.3,1.64-10.7
				C644.33,385.59,647.22,393.05,648.95,395.19z"/>
		</g>
		<path id="Body" class="st3" d="M719.6,505.01c19.92,5.68,17.28,6.84,32.32,21.09c12.77,12.11,29.91,39.33,36.53,55.64
			c4.18,10.3,16.93,20.12,22.74,29.62c4.82,7.88,18.15,5.06,22.64,13.15c0.65,1.16,1.32,2.36,2.37,3.17
			c1.89,1.46-2.95,4.35-0.68,5.11c2.71,0.91,9.54,12.3,11.01,14.75c2.88,4.83-0.85-0.26-1.17,5.39c-0.43,7.59,1.67,9.82-2.16,15.36
			c-4.82,6.97-6.82,15.42-8.75,23.54c-1.64,6.92-2.32,16.19-7.45,21.44c-5.01,5.13-12.78,6.63-19.92,6.05
			c-14.18-1.16-28.48-8.64-37.47-19.69c-10.82-13.31-12.09-30.85-20.78-45.15c-7.96-13.1-19.97-22.9-28.98-35.18
			c-9.44-12.87-15.47-27.74-21.49-42.41c-6.91-16.83-15.86-31.95-14.45-50.81c0.64-8.53,2.81-17.35,8.56-23.67
			C698.23,496.1,711.38,502.67,719.6,505.01z"/>
		<g id="Arm">
			<path class="st8" d="M835.73,631.81c6.62-2.7,16.83-12.06,20.7-15.75c-4.01,1.61-6.99,4.83-11.61,3.51
				c-6.69-1.9-13.37-3.81-20.03-5.79c-62.3-24.96-85.03-66.39-85.03-66.39s8.18,8.77-15.92-13.11c-24.1-21.88-17.49-2.79-17.49-2.79
				s17.81,27.37,46.5,58.23c28.69,30.86,66.18,38.12,66.18,38.12c4.73,1.24,9.48,2.43,14.22,3.42
				C834.12,631.42,834.92,631.61,835.73,631.81z"/>
			<path class="st11" d="M748.21,538.46c0,0-35.09-51.87-50.58-30.69c-15.49,21.18,33.17,70.89,33.17,70.89l24.93-35.12
				L748.21,538.46z"/>
		</g>
	</g>
</g>
<g id="UI">
	<g id="Shopping_bag">
		<g>
			<path class="st0" d="M853.47,367.28l-1.43-3.47c-3.41-8.28-4.24-17.1-2.33-24.83c2.02-8.15,6.8-14.14,13.48-16.9
				c13.35-5.5,30.09,4.26,37.31,21.76l1.43,3.46L853.47,367.28z M871.21,328.01c-1.77,0-3.51,0.32-5.16,1.01
				c-4.41,1.82-7.63,6-9.06,11.77c-1.27,5.12-1,10.92,0.72,16.64l34.26-14.12C887,333.94,878.78,328.01,871.21,328.01z"/>
		</g>
		<g>
			<path class="st5" d="M852.27,356.61c-7.94,3.27-12.35,11.03-9.79,17.23l19.16,84.89c2.56,6.2,11.15,8.6,19.09,5.33l58.8-24.23
				l-57.76-95.38L852.27,356.61z"/>
			<path class="st6" d="M956.36,419.7l-44.27-74.55c-2.56-6.2-11.15-8.6-19.09-5.33l-11.24,4.63l57.76,95.38l7.04-2.9
				C954.51,433.66,958.92,425.9,956.36,419.7z"/>
		</g>
	</g>
	<g id="Element">
		<path class="st0" d="M724.28,187.33H623.02c-3.11,0-5.65-2.54-5.65-5.65v-6.35c0-3.11,2.54-5.65,5.65-5.65h101.26
			c3.11,0,5.65,2.54,5.65,5.65v6.35C729.93,184.79,727.39,187.33,724.28,187.33z"/>
		<path class="st0" d="M724.28,217.28H623.02c-3.11,0-5.65-2.54-5.65-5.65v-6.35c0-3.11,2.54-5.65,5.65-5.65h101.26
			c3.11,0,5.65,2.54,5.65,5.65v6.35C729.93,214.74,727.39,217.28,724.28,217.28z"/>
		<path class="st0" d="M724.28,247.23H623.02c-3.11,0-5.65-2.54-5.65-5.65v-6.35c0-3.11,2.54-5.65,5.65-5.65h101.26
			c3.11,0,5.65,2.54,5.65,5.65v6.35C729.93,244.69,727.39,247.23,724.28,247.23z"/>
		<path class="st0" d="M724.28,277.18H623.02c-3.11,0-5.65-2.54-5.65-5.65v-6.35c0-3.11,2.54-5.65,5.65-5.65h101.26
			c3.11,0,5.65,2.54,5.65,5.65v6.35C729.93,274.64,727.39,277.18,724.28,277.18z"/>
	</g>
	<g id="Shopping_Cart">
		<g>
			<path class="st0" d="M603.43,722.22L603.43,722.22c-12.66,0-23.02-10.36-23.02-23.02v0c0-12.66,10.36-23.02,23.02-23.02h0
				c12.66,0,23.02,10.36,23.02,23.02v0C626.45,711.86,616.09,722.22,603.43,722.22z"/>
			<g>
				<g>
					<path class="st0" d="M621.33,673.17c-2.45,0-5.01-0.48-7.6-1.45c-5.72-2.15-10.94-6.49-14.69-12.23l-2.05-3.14L631.19,634
						l2.05,3.14c7.98,12.22,6.79,27.17-2.64,33.32C627.86,672.26,624.69,673.17,621.33,673.17z M607.57,658.38
						c2.54,2.92,5.57,5.11,8.79,6.32c3.83,1.44,7.44,1.26,10.15-0.51c5.14-3.36,5.94-11.83,2.29-19.67L607.57,658.38z"/>
				</g>
				<g>
					<path class="st2" d="M633.27,642.96c5.34-3.49,7.48-9.76,4.76-13.93l-25.74-59.29c-2.72-4.17-9.32-4.73-14.67-1.24
						l-39.55,25.83l55.36,61.59L633.27,642.96z"/>
					<path class="st4" d="M548.57,611.34l42.63,48.26c2.72,4.17,9.32,4.73,14.67,1.24l7.56-4.93l-55.36-61.59l-4.73,3.09
						C547.99,600.9,545.85,607.17,548.57,611.34z"/>
				</g>
			</g>
			<g>
				<g>
					<path class="st0" d="M633.92,588.52l-1.09-3.58c-2.61-8.57-2.6-17.43,0.04-24.94c2.78-7.91,8.12-13.43,15.02-15.54
						c6.9-2.1,14.41-0.5,21.14,4.52c6.37,4.76,11.32,12.11,13.93,20.68l1.09,3.58L633.92,588.52z M653.92,551.06
						c-1.31,0-2.6,0.19-3.84,0.57c-4.57,1.39-8.17,5.25-10.14,10.85c-1.75,4.98-2.03,10.78-0.86,16.63l35.45-10.8
						c-2.29-5.52-5.76-10.17-9.99-13.33C661.08,552.4,657.41,551.06,653.92,551.06z"/>
				</g>
				<g>
					<path class="st5" d="M633.74,577.78c-8.22,2.5-13.34,9.8-11.39,16.22l11.01,86.33c1.96,6.42,10.28,9.62,18.5,7.12l60.84-18.53
						l-48.44-100.43L633.74,577.78z"/>
					<path class="st6" d="M731.37,650.48l-36.99-78.42c-1.96-6.42-10.28-9.62-18.5-7.12l-11.63,3.54l48.44,100.43l7.28-2.22
						C728.2,664.19,733.32,656.89,731.37,650.48z"/>
				</g>
			</g>
			<path class="st6" d="M769.87,771.35H610.23c-12.66,0-23.02-10.36-23.02-23.02v0c0-12.66,10.36-23.02,23.02-23.02h159.64
				c12.66,0,23.02,10.36,23.02,23.02v0C792.89,760.99,782.53,771.35,769.87,771.35z"/>
			<path class="st4" d="M725.2,720.01h-70.31c-12.66,0-23.02-10.36-23.02-23.02l0,0c0-12.66,10.36-23.02,23.02-23.02h70.31
				c12.66,0,23.02,10.36,23.02,23.02l0,0C748.23,709.65,737.86,720.01,725.2,720.01z"/>
			<path class="st2" d="M877.13,770.62h-48.92c-12.66,0-23.02-10.36-23.02-23.02v0c0-12.66,10.36-23.02,23.02-23.02h48.92
				c12.66,0,23.02,10.36,23.02,23.02v0C900.16,760.26,889.8,770.62,877.13,770.62z"/>
		</g>
		<g id="Shoping_Cart">
			<g>
				<g>
					<circle class="st7" cx="678.89" cy="963.92" r="24.13"/>
				</g>
				<circle class="st0" cx="678.89" cy="963.92" r="17.06"/>
			</g>
			<g>
				<g>
					<circle class="st7" cx="849.85" cy="963.92" r="24.13"/>
				</g>
				<circle class="st0" cx="849.85" cy="963.92" r="17.06"/>
			</g>
			<g>
				<g>
					<path class="st7" d="M654.56,932.29c-3.76,0-46.14-0.77-54.76-34.63c-3.23-12.68-10.39-51.84-18.67-97.19
						c-11.73-64.19-27.8-152.11-32.86-161.71c-7.76-14.72-14.48-17.62-39.74-17.17c-25.41,0.43-119.2-0.03-120.15-0.04l0.04-7.49
						c0.94,0,94.64,0.47,119.98,0.04c25.87-0.42,36.76,2.69,46.5,21.17c5.19,9.86,17.2,74.13,33.6,163.85
						c8.26,45.21,15.4,84.25,18.56,96.69c7.4,29.07,47.25,28.97,47.67,28.99h245.43v7.49H654.76
						C654.72,932.29,654.65,932.29,654.56,932.29z"/>
				</g>
				<g>
					<g>
						<polygon class="st7" points="909.21,776.92 580.75,776.92 580.75,769.43 903.42,769.43 936.37,643.37 552.63,643.37 
							552.63,635.88 946.08,635.88 						"/>
					</g>
					<g>
						
							<rect x="657.82" y="637.41" transform="matrix(0.9679 -0.2512 0.2512 0.9679 -156.2166 188.8064)" class="st7" width="7.49" height="137.97"/>
					</g>
					<g>
						<rect x="743.18" y="639.63" class="st7" width="7.49" height="130.99"/>
					</g>
					<g>
						
							<rect x="763.8" y="702.65" transform="matrix(0.251 -0.968 0.968 0.251 -60.0511 1335.1915)" class="st7" width="137.97" height="7.49"/>
					</g>
					<g>
						<rect x="564.19" y="680.55" class="st7" width="362.77" height="7.49"/>
					</g>
					<g>
						<rect x="572.83" y="725.52" class="st7" width="344.96" height="7.49"/>
					</g>
				</g>
			</g>
		</g>
	</g>
</g>
</svg>
